HIERARCHY
ROOT pelvis
{
  OFFSET 0 100 0
  CHANNELS 6 Xposition Yposition Zposition Zrotation Xrotation Yrotation
  JOINT pelvis_right_femur
  {
    OFFSET -10.78128 -3.44521 -0.5502486
    CHANNELS 3 Zrotation Xrotation Yrotation
    JOINT right_femur_tibia
    {
      OFFSET -0.8047443 -44.0398 -0.1307829
      CHANNELS 3 Zrotation Xrotation Yrotation
      JOINT right_tibia_foot
      {
        OFFSET 3.006224 -47.83518 -5
        CHANNELS 3 Zrotation Xrotation Yrotation
        End Site
        {
          OFFSET 0 -5 15
        }
      }
    }
  }
  JOINT pelvis_left_femur
  {
    OFFSET 10.78128 -3.44521 -0.5502486
    CHANNELS 3 Zrotation Xrotation Yrotation
    JOINT left_femur_tibia
    {
      OFFSET 0.8047443 -44.0398 -0.1307829
      CHANNELS 3 Zrotation Xrotation Yrotation
      JOINT left_tibia_foot
      {
        OFFSET -4.370144 -48.10324 -4.275266
        CHANNELS 3 Zrotation Xrotation Yrotation
        End Site
        {
          OFFSET 0 -5 15
        }
      }
    }
  }
  JOINT pelvis_spine1
  {
    OFFSET 0 6.468898 -3.129235
    CHANNELS 3 Zrotation Xrotation Yrotation
    JOINT spine1
    {
      OFFSET 0 23.15396 4.99043
      CHANNELS 3 Zrotation Xrotation Yrotation
      JOINT spine2
      {
        OFFSET 0 20.79997 -5.064912
        CHANNELS 3 Zrotation Xrotation Yrotation
        JOINT neck
        {
          OFFSET 0 14.38658 9.616178
          CHANNELS 3 Zrotation Xrotation Yrotation
          End Site
          {
            OFFSET 0 20 0
          }
        }
      }
      JOINT right_manubrium
      {
        OFFSET -5.722621 16.35077 3.967754
        CHANNELS 3 Zrotation Xrotation Yrotation
        JOINT right_clavicle
        {
          OFFSET -13.16364 1.694482 -4.693211
          CHANNELS 3 Zrotation Xrotation Yrotation
          JOINT right_humerus
          {
            OFFSET -28.5034 -0.3100689 -2.792744
            CHANNELS 3 Zrotation Xrotation Yrotation
            JOINT right_radius
            {
              OFFSET -25.15693 0.02248979 -1.271978
              CHANNELS 3 Zrotation Xrotation Yrotation
              End Site
              {
                OFFSET -15 0 0
              }
            }
          }
        }
      }
      JOINT left_manubrium
      {
        OFFSET 5.722621 16.35077 3.967754
        CHANNELS 3 Zrotation Xrotation Yrotation
        JOINT left_clavicle
        {
          OFFSET 13.16364 1.694482 -4.693211
          CHANNELS 3 Zrotation Xrotation Yrotation
          JOINT left_humerus
          {
            OFFSET 29.39168 -1.063119 -2.237045
            CHANNELS 3 Zrotation Xrotation Yrotation
            JOINT left_radius
            {
              OFFSET 24.59957 -0.9528479 0.9047498
              CHANNELS 3 Zrotation Xrotation Yrotation
              End Site
              {
                OFFSET 15 -0 -0
              }
            }
          }
        }
      }
    }
  }
}
MOTION
Frames: 19
Frame Time: 0.0416666666667
0 103.5113 0 -0.2225163 0.5083469 -0.02821965 5.125076 -18.34943 11.2113 -0 36.52783 -0 -6.500696 -15.14819 -3.796841 -6.035941 9.461528 -21.6683 -0 7.14167 -0 5.727136 -20.11702 26.50619 -2.796736 -4.773748 5.276226 2.373676 9.70354 -8.737914 1.546024 21.41073 6.280157 2.727424 -25.38485 9.627332 6.461361 -19.88292 11.12704 85.01717 33.94228 -19.23809 -0 0 18.32479 -7.055913 9.61204 2.341933 8.445517 -21.90159 1.509071 -95.76562 23.30315 23.23417 0 0 -10.46937 11.76247 20.21295 0.4473201
0.2291864 104.3938 1.683454 -0.2849678 0.2008415 -0.0143955 4.997756 -18.491 10.68495 -0 37.04757 -0 -6.838553 -13.7436 -3.576928 -5.914372 9.595331 -21.259 -0 7.005709 -0 5.593085 -19.94127 25.99108 -2.670403 -4.580542 5.093607 2.296561 9.893923 -8.673538 1.481506 21.47192 6.392928 2.766581 -25.52016 9.617019 6.079673 -19.9986 11.17286 85.54485 33.37305 -19.35461 -0 0 17.85879 -7.657797 9.498131 2.736736 8.25106 -22.05898 1.086194 -95.33751 23.17201 22.94318 0 0 -10.97254 11.78548 19.85337 0.4963961
0.4940501 105.0447 3.929996 0.3441108 -1.537932 0.06649397 3.389596 -20.46346 7.088971 -0 37.75235 -0 -6.937599 -12.34619 -2.301852 -6.527477 11.19726 -19.69309 -0 4.492976 -0 12.24108 -13.95518 25.94149 -2.960385 -2.843741 4.048758 2.327749 11.0369 -8.001921 0.7387632 22.43141 7.182514 2.586935 -25.16971 9.589407 4.882856 -20.36822 12.09673 88.73696 34.82773 -20.04223 -0 0 12.03838 -9.873897 7.989895 5.94109 5.418934 -21.80133 -3.142488 -88.54751 21.37304 17.10084 0 0 -20.42444 16.01845 14.3884 -3.572901
0.7712293 105.5516 6.467168 0.5431111 -1.545964 0.1336686 3.334558 -23.09145 5.738716 -0 34.6527 -0 -6.502454 -11.27135 -1.775537 -6.838559 12.00422 -19.03518 -0 4.44837 -0 14.5485 -13.48474 25.8988 -3.322647 -2.114976 3.754134 2.637568 11.09389 -7.806243 0.6927204 22.45285 7.374033 2.678188 -24.96405 9.601073 4.663311 -20.03788 12.35361 89.1343 35.24557 -20.22367 -0 0 10.30765 -10.32686 7.810672 6.851054 5.075111 -21.59536 -3.980042 -86.7542 20.38357 14.99824 0 0 -23.61499 17.31175 12.69231 -5.093668
1.050257 105.9033 9.2281 0.5994954 -0.8399531 0.1977839 3.64934 -25.38202 5.314713 -0 30.7906 -0 -6.215797 -10.50132 -1.468184 -7.041473 12.59976 -18.73209 -0 4.574303 -0 15.38314 -14.31329 25.97892 -3.576048 -1.901285 3.814842 2.927726 10.88586 -7.821896 0.7849387 22.16392 7.433975 2.780205 -25.24816 9.730615 4.548153 -19.76904 12.28556 89.17509 35.65292 -20.53036 -0 0 9.819263 -10.05397 7.832992 6.913156 5.344993 -21.63881 -3.807702 -86.24103 19.86726 14.12819 0 0 -25.22152 17.812 11.80015 -5.748017
1.322443 106.1033 12.2684 0.518093 -0.009474562 0.3014617 4.09481 -27.63166 4.990822 -0 26.96524 -0 -6.142294 -9.278921 -1.157646 -7.104915 13.23537 -18.26294 -0 4.870369 -0 15.40968 -15.49213 25.76031 -3.641672 -1.814637 3.874533 3.1232 10.67779 -7.912508 0.8763359 21.79444 7.516116 2.932337 -25.5982 9.854562 4.375457 -19.47622 12.13543 89.31048 35.81087 -20.98998 -0 0 9.484459 -9.835197 7.942543 6.781833 5.8253 -21.94402 -3.454961 -85.95294 19.39172 13.47631 0 0 -26.51971 18.20965 11.22142 -6.285373
1.580552 106.1838 15.65203 0.3076032 0.8607057 0.4761799 4.662413 -29.84891 4.710811 -0 23.31752 -0 -6.212944 -7.739297 -0.8476492 -7.048627 13.94579 -17.62893 -0 5.51572 -0 14.77953 -16.79257 25.20893 -3.531625 -1.795534 3.884311 3.242065 10.48561 -8.053362 0.9564711 21.38217 7.628071 3.131257 -25.90612 9.955505 4.18221 -19.11846 11.94979 89.52728 35.76778 -21.58044 -0 0 9.171998 -9.700753 8.137434 6.532834 6.434232 -22.41758 -3.026668 -85.77853 18.95614 12.9197 0 0 -27.63887 18.55398 10.8764 -6.779802
1.819399 106.1892 19.44514 -0.02974143 1.705915 0.7422426 5.337775 -31.90709 4.461948 -0 19.96574 -0 -6.411245 -6.013668 -0.5579433 -6.879174 14.71749 -16.83458 -0 6.725651 -0 13.49702 -18.04066 24.2648 -3.241017 -1.830388 3.827934 3.292138 10.3189 -8.233441 1.019791 20.95728 7.760939 3.360815 -26.12115 10.01886 3.979664 -18.68365 11.74865 89.82243 35.51388 -22.28634 -0 0 8.831042 -9.67084 8.416324 6.201929 7.111065 -23.00391 -2.575263 -85.69478 18.58346 12.43901 0 0 -28.56322 18.81441 10.74687 -7.208188
2.037569 106.1805 23.70586 -0.4831872 2.454806 1.103922 6.100397 -33.5936 4.259924 -0 17.07903 -0 -6.727653 -4.265842 -0.319409 -6.607122 15.48592 -15.90914 -0 8.750954 -0 11.5856 -19.01891 22.90189 -2.771936 -1.913752 3.706254 3.283266 10.1927 -8.440118 1.061936 20.55058 7.898511 3.596824 -26.21905 10.03349 3.778584 -18.18292 11.55184 90.18686 35.05247 -23.07402 -0 0 8.444563 -9.750799 8.771987 5.825436 7.774337 -23.63528 -2.149957 -85.70779 18.3076 12.06598 0 0 -29.2158 18.9297 10.80566 -7.505793
2.238371 106.239 28.47517 -1.028676 3.018045 1.542902 6.915053 -34.64026 4.117485 -0 14.84551 -0 -7.159985 -2.671242 -0.1684447 -6.243059 16.13174 -14.88713 -0 11.87905 -0 9.123377 -19.47176 21.13851 -2.136844 -2.033275 3.530564 3.227796 10.12923 -8.655483 1.078229 20.19813 8.018752 3.809662 -26.18847 9.986553 3.585546 -17.6434 11.38454 90.60746 34.39137 -23.8886 -0 0 8.006489 -9.95246 9.19238 5.456164 8.318797 -24.23501 -1.812317 -85.83043 18.15712 11.85493 0 0 -29.49067 18.82511 11.01337 -7.587039
2.429531 106.4665 33.76286 -1.619857 3.294824 2.012058 7.724289 -34.74453 4.038748 -0 13.43891 -0 -7.708567 -1.421294 -0.1424521 -5.799096 16.4646 -13.81068 -0 16.3898 -0 6.290394 -19.13268 19.07523 -1.367668 -2.163104 3.328124 3.140493 10.15529 -8.853414 1.064136 19.93969 8.094772 3.966118 -26.03375 9.865303 3.40291 -17.11161 11.27736 91.06402 33.56034 -24.6496 -0 0 7.527571 -10.28878 9.657107 5.164509 8.620016 -24.71695 -1.632944 -86.07484 18.14863 11.87754 0 0 -29.27746 18.42418 11.30742 -7.354312
2.620375 106.979 39.5306 -2.182898 3.189225 2.434601 8.44434 -33.61637 4.011624 -0 12.95123 -0 -8.372344 -0.7078115 -0.2684053 -5.289505 16.21598 -12.72471 -0 22.47306 -0 3.384069 -17.79368 16.90878 -0.5233333 -2.25972 3.148004 3.034487 10.29648 -8.997745 1.016851 19.81407 8.097702 4.034417 -25.7756 9.659251 3.225289 -16.65405 11.26209 91.52852 32.62186 -25.25338 -0 0 7.044652 -10.76954 10.13508 5.031173 8.557791 -24.99546 -1.676175 -86.44293 18.27691 12.21006 0 0 -28.50208 17.67166 11.59829 -6.719561
2.816139 107.8878 45.67644 -2.620193 2.639231 2.715677 8.972208 -31.05292 4.008185 -0 13.30714 -0 -9.139199 -0.69242 -0.5450465 -4.732435 15.05254 -11.67041 -0 30.09306 -0 0.7772166 -15.40833 14.90019 0.3057124 -2.264325 3.065198 2.913537 10.567 -9.04261 0.9382858 19.84992 8.002156 3.992277 -25.44773 9.364004 3.036598 -16.35355 11.36211 91.96204 31.67735 -25.58239 -0 0 6.637155 -11.39266 10.58454 5.127629 8.060177 -25.00332 -1.970438 -86.91752 18.50817 12.91562 0 0 -27.1777 16.56617 11.77787 -5.639415
3.011511 109.265 52.03067 -2.827859 1.651192 2.771125 9.205305 -27.02668 3.99054 -0 14.191 -0 -9.968147 -1.46237 -0.9225277 -4.151247 12.62834 -10.6755 -0 38.81885 -0 -1.188332 -12.1911 13.2966 1.001724 -2.117222 3.176692 2.762183 10.95763 -8.93722 0.8384211 20.05399 7.793524 3.83626 -25.08416 8.985234 2.80957 -16.2984 11.57828 92.30857 30.85743 -25.52185 -0 0 6.44315 -12.13695 10.95936 5.486615 7.159301 -24.71816 -2.474128 -87.45695 18.78001 14.02223 0 0 -25.4476 15.19585 11.75029 -4.161928
3.189251 111.0971 58.37638 -2.725014 0.3249089 2.567674 9.067104 -21.74799 3.915518 -0 15.04872 -0 -10.7664 -2.986002 -1.289904 -3.571732 8.68695 -9.744974 -0 47.68253 -0 -2.322193 -8.650592 12.25864 1.438181 -1.787017 3.582148 2.540634 11.42848 -8.637558 0.7363177 20.40102 7.474663 3.588148 -24.69878 8.541344 2.511178 -16.56478 11.87598 92.48695 30.28897 -24.9795 -0 0 6.66134 -12.9638 11.22463 6.075846 6.029736 -24.18888 -3.060241 -88.00087 19.01091 15.50589 0 0 -23.58166 13.75609 11.48456 -2.467711
3.330676 113.2482 64.5021 -2.286079 -1.149499 2.154104 8.532688 -15.65112 3.734065 -0 15.22804 -0 -11.38013 -5.086191 -1.485378 -3.008729 3.202087 -8.855335 -0 55.17717 -0 -2.646757 -5.495315 11.84943 1.515931 -1.307045 4.343621 2.195588 11.91676 -8.126618 0.6549474 20.83133 7.068538 3.292943 -24.2702 8.062452 2.116264 -17.19863 12.18498 92.38891 30.04214 -23.90093 -0 0 7.51794 -13.83727 11.38064 6.799454 4.969238 -23.54229 -3.546177 -88.49418 19.11484 17.29128 0 0 -21.88832 12.52508 11.06329 -0.8782729
3.43749 115.463 70.27335 -1.568176 -2.533284 1.657126 7.656901 -9.283473 3.394887 -0 14.25898 -0 -11.6319 -7.448168 -1.342696 -2.438446 -3.492572 -7.952754 -0 59.5136 -0 -2.356814 -3.389842 12.07428 1.21274 -0.7956352 5.428941 1.69486 12.3654 -7.440412 0.6081885 21.25994 6.614422 3.0053 -23.75443 7.583218 1.628941 -18.20607 12.42474 91.89539 30.07951 -22.27518 -0 0 9.184382 -14.76011 11.48638 7.546982 4.299585 -22.94828 -3.772335 -88.92458 19.0112 19.27304 0 0 -20.54555 11.79191 10.67812 0.1899902
3.550366 117.429 75.68365 -0.7295963 -3.609426 1.231569 6.604438 -3.152362 2.866162 -0 12.14919 -0 -11.42118 -9.677442 -0.7739631 -1.765404 -10.66745 -6.957131 -0 59.16601 -0 -1.690246 -2.627628 12.90024 0.6272888 -0.4297808 6.664471 1.076083 12.76067 -6.686595 0.5863516 21.59601 6.157531 2.767261 -23.13611 7.130033 1.106192 -19.55651 12.55369 90.91484 30.24263 -20.13375 -0 0 11.66461 -15.79823 11.66549 8.276015 4.213572 -22.54732 -3.69364 -89.34851 18.62878 21.3394 0 0 -19.4365 11.7627 10.54046 0.3325582
3.743158 118.8775 80.84217 -0.02406235 -4.250531 0.9862398 5.656313 2.361212 2.171521 -0 9.460407 -0 -10.83461 -11.43224 0.143249 -0.8186421 -17.33304 -5.789875 -0 53.5452 -0 -0.7986312 -2.907299 14.21616 -0.01869653 -0.3630063 7.745854 0.4743228 13.14152 -6.031378 0.556384 21.76706 5.73398 2.587405 -22.48653 6.711576 0.668597 -21.18783 12.61153 89.42633 30.29903 -17.55156 -0 0 14.72154 -17.0505 12.07368 9.067492 4.649858 -22.38427 -3.421411 -89.87552 17.92738 23.37093 0 0 -18.13413 12.46897 10.75059 -0.6740241
